<svg width="120" height="160" viewBox="0 0 120 160" fill="none" xmlns="http://www.w3.org/2000/svg">
<path fill-rule="evenodd" clip-rule="evenodd" d="M13.401 0.570257C8.03901 1.51826 5.49101 3.03226 2.72101 6.91626L0.401009 10.1683L0.126008 82.2513C-0.148992 154.145 -0.143991 154.341 1.94801 157.001C6.05701 162.224 8.15801 161.306 34.755 142.668C48.098 133.318 59.42 125.668 59.916 125.668C60.411 125.668 71.707 133.318 85.018 142.668C111.586 161.331 113.716 162.261 117.854 157.001C119.946 154.341 119.951 154.145 119.676 82.2513L119.401 10.1683L117.072 6.90326C112.17 0.0292568 113.39 0.185257 62.901 0.0162574C37.876 -0.0677426 15.601 0.182257 13.401 0.570257Z" fill="black"/>
</svg>
