<svg width="168" height="165" viewBox="0 0 168 165" fill="none" xmlns="http://www.w3.org/2000/svg">
<path d="M3.56392 41.2429C4.38142 35.784 7.18773 31.0254 11.433 27.9028C14.7722 25.4466 17.0247 24.757 28.087 22.8064L40.8805 20.5496L25.0816 43.1362C16.3927 55.5587 8.7243 65.8212 8.04281 65.9414C6.41887 66.2277 2.80633 46.3044 3.56392 41.2429Z" fill="black"/>
<path d="M31.1092 62.1747C30.6608 61.8608 37.329 51.5462 45.927 39.2534L61.5615 16.903L75.8512 14.3904L90.142 11.8776L73.8684 35.0486L57.5937 58.2196L44.7587 60.4828C37.6996 61.7275 31.5575 62.4886 31.1092 62.1747Z" fill="black"/>
<path d="M80.3496 53.4923C79.9012 53.1784 86.5694 42.8638 95.1674 30.571L110.802 8.22055L125.092 5.70798L139.382 3.19524L123.109 26.3661L106.834 49.5372L93.9991 51.8004C86.94 53.0451 80.7979 53.8062 80.3496 53.4923Z" fill="black"/>
<path d="M130.079 44.9125C128.983 44.6997 132.235 39.2937 141.034 26.7087C147.916 16.863 154.071 8.71445 154.709 8.60192C157.403 8.127 160.493 15.9015 162.252 27.5804L163.966 38.9557L147.802 42.0861C138.912 43.8068 130.936 45.0792 130.079 44.9125Z" fill="black"/>
<path fill-rule="evenodd" clip-rule="evenodd" d="M7.59009 151.831L7.29492 113.916L7 76H87.0901H167.18L166.885 113.916L166.59 151.831L163.59 156.089C161.94 158.431 158.607 161.394 156.183 162.673L151.775 165H87.0901H22.405L17.9971 162.673C15.573 161.394 12.24 158.431 10.5901 156.089L7.59009 151.831ZM130.131 134V131.36L131.971 131.08L138.491 120.52L132.211 109.88L130.451 109.4V106.36H139.851L140.251 109.04L137.411 109.64L141.691 116.96L146.091 109.68L143.731 109.08V106.36H152.091V109.52L150.411 109.8L143.771 120.52L149.771 130.52L152.331 131.4V134H142.411V131.4L144.731 131.16L140.491 124L136.291 131.2L138.531 131.48V134H130.131ZM118.049 130.84L118.449 134H127.809L127.849 130.88L125.089 130.48V110.04L127.849 109.6L127.369 106.36H118.049V109.6L120.649 109.84V130.4L118.049 130.84ZM97.9431 134L97.4631 130.88L99.9431 130.44V109.8L97.5032 109.56V106.36H106.823L107.263 109.56L104.423 110.04V130.28H111.823L113.263 126.24H116.023L115.223 134H97.9431ZM76.7991 130.88L77.2791 134H90.0791L90.3191 131.2L83.759 130.2V121.76H89.959V118.08H83.759V110.08H90.8391L92.479 114.12H95.1592L94.3591 106.36H76.8391V109.52L79.3191 109.8V130.36L76.7991 130.88ZM62.2588 134.16C60.3655 134.16 58.6987 133.8 57.2588 133.08C55.8455 132.36 54.6589 131.36 53.6987 130.08C52.7656 128.8 52.0454 127.32 51.5388 125.64C51.0588 123.96 50.8188 122.16 50.8188 120.24C50.8188 118.293 51.0588 116.48 51.5388 114.8C52.0454 113.12 52.7656 111.64 53.6987 110.36C54.6589 109.08 55.8455 108.093 57.2588 107.4C58.6987 106.68 60.3655 106.32 62.2588 106.32C64.1521 106.32 65.8054 106.68 67.2188 107.4C68.6589 108.093 69.8455 109.08 70.7788 110.36C71.7388 111.64 72.4587 113.12 72.939 114.8C73.4189 116.48 73.6589 118.293 73.6589 120.24C73.6589 122.16 73.4189 123.96 72.939 125.64C72.4587 127.32 71.7388 128.8 70.7788 130.08C69.8455 131.36 68.6589 132.36 67.2188 133.08C65.8054 133.8 64.1521 134.16 62.2588 134.16ZM62.2588 130.44C63.3789 130.44 64.3523 130.173 65.179 129.64C66.0322 129.08 66.7388 128.333 67.2988 127.4C67.8589 126.467 68.2854 125.4 68.5789 124.2C68.8721 122.973 69.0188 121.68 69.0188 120.32C69.0188 118.96 68.8721 117.667 68.5789 116.44C68.2854 115.187 67.8589 114.08 67.2988 113.12C66.7388 112.16 66.0322 111.413 65.179 110.88C64.3523 110.32 63.3789 110.04 62.2588 110.04C61.1389 110.04 60.1521 110.32 59.2988 110.88C58.4722 111.413 57.7656 112.16 57.179 113.12C56.6189 114.08 56.1921 115.187 55.8989 116.44C55.6055 117.667 55.4587 118.96 55.4587 120.32C55.4587 121.68 55.6055 122.973 55.8989 124.2C56.1921 125.4 56.6189 126.467 57.179 127.4C57.7656 128.333 58.4722 129.08 59.2988 129.64C60.1521 130.173 61.1389 130.44 62.2588 130.44ZM23.8704 130.84L24.3503 134H33.2703V130.88L30.7903 130.48V121.64H40.7104V130.4L38.4304 130.84L38.8704 134H47.8303L47.8704 130.88L45.1504 130.48V110.04L47.8704 109.6L47.4304 106.36H38.4304V109.6L40.7104 109.84V117.96H30.7903V110.04L33.2703 109.6L32.8303 106.36H23.9104V109.6L26.3503 109.84V130.4L23.8704 130.84Z" fill="black"/>
</svg>
